<svg width="30" height="29" viewBox="0 0 30 29" fill="none" xmlns="http://www.w3.org/2000/svg">
<path d="M13.5 15.95V20.3C13.5 20.7108 13.644 21.0554 13.932 21.3338C14.22 21.6122 14.576 21.751 15 21.75C15.424 21.749 15.7805 21.6098 16.0695 21.3324C16.3585 21.055 16.502 20.7108 16.5 20.3V15.95H21C21.425 15.95 21.7815 15.8108 22.0695 15.5324C22.3575 15.254 22.501 14.9099 22.5 14.5C22.499 14.0901 22.355 13.746 22.068 13.4676C21.781 13.1892 21.425 13.05 21 13.05H16.5V8.7C16.5 8.28916 16.356 7.94503 16.068 7.6676C15.78 7.39017 15.424 7.25097 15 7.25C14.576 7.24903 14.22 7.38823 13.932 7.6676C13.644 7.94697 13.5 8.2911 13.5 8.7V13.05H9C8.575 13.05 8.219 13.1892 7.932 13.4676C7.645 13.746 7.501 14.0901 7.5 14.5C7.499 14.9099 7.643 15.2545 7.932 15.5338C8.221 15.8132 8.577 15.9519 9 15.95H13.5ZM15 29C12.925 29 10.975 28.6191 9.15 27.8574C7.325 27.0957 5.7375 26.0628 4.3875 24.7587C3.0375 23.4547 1.969 21.9201 1.182 20.155C0.395002 18.3899 0.0010019 16.5049 1.89873e-06 14.5C-0.000998101 12.4951 0.393002 10.6101 1.182 8.845C1.971 7.07987 3.0395 5.54528 4.3875 4.24125C5.7355 2.93722 7.323 1.90433 9.15 1.1426C10.977 0.380867 12.927 0 15 0C17.073 0 19.023 0.380867 20.85 1.1426C22.677 1.90433 24.2645 2.93722 25.6125 4.24125C26.9605 5.54528 28.0295 7.07987 28.8195 8.845C29.6095 10.6101 30.003 12.4951 30 14.5C29.997 16.5049 29.603 18.3899 28.818 20.155C28.033 21.9201 26.9645 23.4547 25.6125 24.7587C24.2605 26.0628 22.673 27.0961 20.85 27.8588C19.027 28.6215 17.077 29.0019 15 29ZM15 26.1C18.35 26.1 21.1875 24.9762 23.5125 22.7287C25.8375 20.4812 27 17.7383 27 14.5C27 11.2617 25.8375 8.51875 23.5125 6.27125C21.1875 4.02375 18.35 2.9 15 2.9C11.65 2.9 8.8125 4.02375 6.4875 6.27125C4.1625 8.51875 3 11.2617 3 14.5C3 17.7383 4.1625 20.4812 6.4875 22.7287C8.8125 24.9762 11.65 26.1 15 26.1Z" fill="black"/>
</svg>
