<svg width="42" height="43" viewBox="0 0 42 43" fill="none" xmlns="http://www.w3.org/2000/svg">
<g clip-path="url(#clip0_124_192)">
<path d="M38.5 7.96666L34.1833 3.64999C33.8123 3.29623 33.3193 3.09888 32.8066 3.09888C32.294 3.09888 31.801 3.29623 31.43 3.64999L27.5916 7.49999H6.99996C6.38112 7.49999 5.78763 7.74582 5.35004 8.18341C4.91246 8.62099 4.66663 9.21448 4.66663 9.83332V35.5C4.66663 36.1188 4.91246 36.7123 5.35004 37.1499C5.78763 37.5875 6.38112 37.8333 6.99996 37.8333H32.6666C33.2855 37.8333 33.879 37.5875 34.3165 37.1499C34.7541 36.7123 35 36.1188 35 35.5V14.22L38.5 10.72C38.8647 10.3547 39.0696 9.85956 39.0696 9.34332C39.0696 8.82709 38.8647 8.33196 38.5 7.96666ZM21.9683 23.985L17.08 25.07L18.2466 20.2283L29.3883 9.06332L33.1566 12.8317L21.9683 23.985ZM34.4166 11.5017L30.6483 7.73332L32.8066 5.57499L36.575 9.34332L34.4166 11.5017Z" fill="black"/>
</g>
<defs>
<clipPath id="clip0_124_192">
<rect width="42" height="42" fill="white" transform="translate(0 0.5)"/>
</clipPath>
</defs>
</svg>
