<svg width="36" height="37" viewBox="0 0 36 37" fill="none" xmlns="http://www.w3.org/2000/svg">
<path d="M30 3.5H6V6.5L14.715 13.04C12.0701 13.9121 9.87972 15.7988 8.62525 18.2852C7.37077 20.7716 7.15487 23.6544 8.025 26.3C8.45549 27.6105 9.14013 28.8234 10.0398 29.8691C10.9394 30.9148 12.0364 31.7728 13.268 32.3942C14.4995 33.0156 15.8415 33.388 17.2172 33.4902C18.5928 33.5925 19.9751 33.4225 21.285 32.99C23.3857 32.2995 25.2148 30.9635 26.5115 29.1723C27.8083 27.3811 28.5064 25.2263 28.5064 23.015C28.5064 20.8037 27.8083 18.6489 26.5115 16.8577C25.2148 15.0665 23.3857 13.7305 21.285 13.04L30 6.5V3.5ZM22.41 29.75L18 27.17L13.59 29.75L14.76 24.755L10.875 21.395L15.99 20.96L18 16.25L20.01 20.96L25.125 21.395L21.24 24.755L22.41 29.75Z" fill="black"/>
</svg>
