<svg width="37" height="37" viewBox="0 0 37 37" fill="none" xmlns="http://www.w3.org/2000/svg">
<path fill-rule="evenodd" clip-rule="evenodd" d="M18.5 2.03266e-10C20.9294 -1.13879e-05 23.3351 0.478496 25.5796 1.4082C27.8241 2.33791 29.8636 3.7006 31.5815 5.41848C33.2993 7.13636 34.6621 9.17579 35.5918 11.4203C36.5215 13.6648 37 16.0705 37 18.5C37 28.7172 28.7172 37 18.5 37C8.28276 37 0 28.7172 0 18.5C0 8.28276 8.28276 2.03266e-10 18.5 2.03266e-10ZM20.35 20.35H16.65C12.0699 20.35 8.13785 23.1239 6.4419 27.0835C9.12532 30.8464 13.5261 33.3 18.5 33.3C23.4738 33.3 27.8746 30.8464 30.5581 27.0833C28.8621 23.1239 24.9301 20.35 20.35 20.35ZM18.5 5.55C15.4348 5.55 12.95 8.03483 12.95 11.1C12.95 14.1652 15.4348 16.65 18.5 16.65C21.5651 16.65 24.05 14.1652 24.05 11.1C24.05 8.03483 21.5652 5.55 18.5 5.55Z" fill="black"/>
</svg>
