<svg width="71" height="71" viewBox="0 0 71 71" fill="none" xmlns="http://www.w3.org/2000/svg">
<path d="M35.5 6.65625C19.596 6.65625 6.65625 19.596 6.65625 35.5C6.65625 51.404 19.596 64.3438 35.5 64.3438C51.404 64.3438 64.3438 51.404 64.3438 35.5C64.3438 19.596 51.404 6.65625 35.5 6.65625ZM35.5 11.0938C49.0055 11.0938 59.9062 21.9945 59.9062 35.5C59.9062 49.0055 49.0055 59.9062 35.5 59.9062C21.9945 59.9062 11.0938 49.0055 11.0938 35.5C11.0938 21.9945 21.9945 11.0938 35.5 11.0938ZM33.2812 22.1875V33.2812H22.1875V37.7188H33.2812V48.8125H37.7188V37.7188H48.8125V33.2812H37.7188V22.1875H33.2812Z" fill="black"/>
</svg>
