<svg width="42" height="43" viewBox="0 0 42 43" fill="none" xmlns="http://www.w3.org/2000/svg">
<path d="M7 33.75V18C7 17.4458 7.12425 16.9208 7.37275 16.425C7.62125 15.9292 7.96367 15.5208 8.4 15.2L18.9 7.325C19.5125 6.85833 20.2125 6.625 21 6.625C21.7875 6.625 22.4875 6.85833 23.1 7.325L33.6 15.2C34.0375 15.5208 34.3805 15.9292 34.629 16.425C34.8775 16.9208 35.0012 17.4458 35 18V33.75C35 34.7125 34.657 35.5368 33.971 36.2227C33.285 36.9088 32.4613 37.2512 31.5 37.25H26.25C25.7542 37.25 25.3388 37.082 25.004 36.746C24.6692 36.41 24.5012 35.9947 24.5 35.5V26.75C24.5 26.2542 24.332 25.8388 23.996 25.504C23.66 25.1692 23.2447 25.0012 22.75 25H19.25C18.7542 25 18.3388 25.168 18.004 25.504C17.6692 25.84 17.5012 26.2553 17.5 26.75V35.5C17.5 35.9958 17.332 36.4117 16.996 36.7477C16.66 37.0837 16.2447 37.2512 15.75 37.25H10.5C9.5375 37.25 8.71383 36.9076 8.029 36.2227C7.34417 35.5379 7.00117 34.7137 7 33.75Z" fill="black"/>
</svg>
